# xmcd
#
# Track frame offsets:
# 150
# 19852
# 38695
# 58600
# 66547
# 90510
# 113827
# 132802
# 144772
# 162967
#
# Disc length: 2593 seconds
#
#
# Revision: 46
# Processed by: cddbd v1.5.2PL0 Copyright (c) Steve Scherf et al.
# Submitted via: Grip 3.3.1 
#
DISCID=7f0a1f0a
DTITLE=George Michael - Songs From The Last Century
DYEAR=1999
DGENRE=asaa
TTITLE0=Brother Can You Spare A Dime
TTITLE1=Roxanne
TTITLE2=You've Changed
TTITLE3=My Baby Just Cares For Me
TTITLE4=The First Time Ever I Saw Your Face
TTITLE5=Miss Sarajevo
TTITLE6=I Remember You
TTITLE7=Secret Love
TTITLE8=Wild Is The Wind
TTITLE9=Where Or When
EXTD=1999\n\nVirgin\n\n10\n\nJazy Sound.. YEAR: 1999 ID3G: 8
EXTT0=
EXTT1=
EXTT2=
EXTT3=
EXTT4=
EXTT5=
EXTT6=
EXTT7=
EXTT8=
EXTT9=
PLAYORDER=
